<svg width="191" height="191" viewBox="0 0 191 191" fill="none" xmlns="http://www.w3.org/2000/svg">
<path d="M99.9359 89.4693H87.0195C86.6184 88.3663 87.411 87.2537 87.793 85.7496C87.8647 84.6513 87.4779 83.639 87.1102 82.3163C88.1846 82.5073 88.9534 83.3286 89.5168 84.6083C89.3688 83.6533 89.3019 81.7577 89.8702 80.6546C90.5196 81.5667 90.7631 82.302 90.9445 83.3095C90.2999 79.5421 92.229 77.2166 94.8075 76.8203C96.6363 78.716 93.8812 81.1942 94.6213 81.9343C96.2209 83.6056 97.4385 85.4774 97.6868 87.7216C97.9686 86.5088 97.9065 85.1384 97.6391 83.1902C99.4345 85.0667 100.604 87.077 99.9406 89.4693H99.9359Z" fill="black"/>
<path d="M76.8535 96.9276L80.3059 93.8812C75.3924 89.4977 69.6099 84.5365 63.3307 80.5732C65.3362 85.3482 70.2975 90.4623 76.8583 96.9276H76.8535Z" fill="#414443"/>
<path d="M86.1123 114.257C83.8155 116.816 81.5283 119.81 79.3222 122.694C78.9116 123.234 78.138 123.329 77.608 122.904L76.2853 121.859C75.7457 121.429 75.6741 120.631 76.1325 120.111L84.2214 112.089L86.1075 114.257H86.1123Z" fill="#AA670C"/>
<path d="M77.9184 121.176C78.2876 121.176 78.5869 120.877 78.5869 120.507C78.5869 120.138 78.2876 119.839 77.9184 119.839C77.5492 119.839 77.2499 120.138 77.2499 120.507C77.2499 120.877 77.5492 121.176 77.9184 121.176Z" fill="black"/>
<path d="M101.817 112.05C105.236 115.221 108.397 117.866 110.914 120.559C111.639 121.337 111.444 122.636 110.484 123.099C110.479 123.099 110.474 123.104 110.465 123.109C109.367 123.539 107.987 122.913 107.987 122.913C107.987 122.913 107.92 122.813 107.925 122.756L107.987 121.538C107.987 121.481 107.972 121.428 107.929 121.385C106.334 119.723 102.237 117.011 100.237 113.764C100.189 113.688 100.199 113.588 100.256 113.521L101.516 112.064C101.593 111.978 101.727 111.969 101.812 112.05H101.817Z" fill="#AA670C"/>
<path d="M79.2554 119.791C79.6246 119.791 79.9239 119.492 79.9239 119.123C79.9239 118.753 79.6246 118.454 79.2554 118.454C78.8861 118.454 78.5869 118.753 78.5869 119.123C78.5869 119.492 78.8861 119.791 79.2554 119.791Z" fill="black"/>
<path d="M105.112 117.628C105.481 117.628 105.78 117.329 105.78 116.96C105.78 116.59 105.481 116.291 105.112 116.291C104.743 116.291 104.443 116.59 104.443 116.96C104.443 117.329 104.743 117.628 105.112 117.628Z" fill="black"/>
<path d="M127.669 85.0816C123.945 89.6847 119.9 94.0968 115.483 98.2941L111.176 94.0634C110.718 93.6146 109.987 93.5859 109.51 94.0157C108.44 94.9707 107.361 96.0785 106.287 97.277L104.396 95.1044L119.962 79.662C120.573 79.0604 121.562 79.0556 122.173 79.662L127.669 85.0864V85.0816Z" fill="#414443"/>
<path d="M121.103 83.3005C121.644 83.3005 122.082 82.8623 122.082 82.3216C122.082 81.781 121.644 81.3428 121.103 81.3428C120.563 81.3428 120.125 81.781 120.125 82.3216C120.125 82.8623 120.563 83.3005 121.103 83.3005Z" fill="black"/>
<path d="M84.6989 92.0195C88.0414 100.261 99.4918 99.3683 102.175 92.0195C97.2332 94.1253 89.2685 94.0059 84.6989 92.0195Z" fill="black"/>
<path d="M93.4037 92.5543C98.2112 92.5543 102.108 91.7077 102.108 90.6634C102.108 89.619 98.2112 88.7725 93.4037 88.7725C88.5961 88.7725 84.6989 89.619 84.6989 90.6634C84.6989 91.7077 88.5961 92.5543 93.4037 92.5543Z" fill="#DC8C21"/>
<path d="M84.7801 90.9783C83.4765 89.4264 82.679 87.4639 82.808 84.7708C83.6531 86.041 84.527 86.9578 85.4724 86.9625C86.6901 86.4755 82.8653 85.2006 84.4888 80.6739C85.4247 78.4535 84.441 77.5701 83.7152 75.6553C86.2842 76.8395 87.9936 79.036 88.4186 80.2489C89.6362 74.0891 92.3341 69.6102 97.3288 67.7432C96.0204 70.2548 96.2735 72.6375 98.1692 74.8818C99.6637 76.6151 99.7545 78.5585 99.9932 80.4638C100.27 79.3082 100.9 78.2911 101.746 77.3552C101.784 78.9787 101.975 80.4112 102.586 81.3137C103.746 83.8063 102.868 85.7258 101.044 87.674C101.956 88.056 102.92 87.44 103.918 86.1174C103.894 87.9939 103.326 89.5888 102.113 90.8398C102.18 90.2668 101.507 89.7846 99.8977 89.4073C100.585 87.0485 99.4202 85.0716 97.6248 83.2285C98.0546 84.9188 98.131 86.4277 97.6726 87.6549C97.3335 85.1767 96.0395 83.62 94.6309 82.0013C93.8955 81.2755 93.8335 79.2509 94.8171 77.0067C92.2577 77.3934 90.3381 79.6663 90.9828 83.3431C90.8061 82.3594 90.5626 81.6432 89.9179 80.7503C89.3545 81.8246 89.4214 83.6821 89.5694 84.6132C89.0155 83.367 88.2467 82.56 87.1819 82.3738C87.5448 83.663 87.9316 84.6514 87.8599 85.7258C87.4732 87.2061 86.6757 88.3043 87.1007 89.3882C85.7589 89.5506 84.527 90.3576 84.7705 90.9831L84.7801 90.9783Z" fill="#BF220F"/>
<path d="M98.9904 90.1328L95.9774 92.4726" stroke="black" stroke-width="0.5" stroke-miterlimit="10"/>
<path d="M96.8704 89.9951L92.9644 92.5545" stroke="black" stroke-width="0.5" stroke-miterlimit="10"/>
<path d="M94.4398 90.0664L91.0162 92.4826" stroke="black" stroke-width="0.5" stroke-miterlimit="10"/>
<path d="M92.1526 90.3955L89.6266 92.3676" stroke="black" stroke-width="0.5" stroke-miterlimit="10"/>
<path d="M89.493 90.4912L87.7501 92.0192" stroke="black" stroke-width="0.5" stroke-miterlimit="10"/>
<path d="M107.815 99.8164H79.7854V100.423H107.815V99.8164Z" fill="#505352"/>
<path d="M107.815 102.906H79.7854V103.513H107.815V102.906Z" fill="#505352"/>
<path d="M95.5 158.167C130.11 158.167 158.167 130.11 158.167 95.5001C158.167 60.89 130.11 32.833 95.5 32.833C60.8899 32.833 32.8329 60.89 32.8329 95.5001C32.8329 130.11 60.8899 158.167 95.5 158.167Z" stroke="black" stroke-width="2" stroke-miterlimit="10"/>
<path d="M95.5 163.477C133.043 163.477 163.477 133.043 163.477 95.5003C163.477 57.9577 133.043 27.5234 95.5 27.5234C57.9574 27.5234 27.5231 57.9577 27.5231 95.5003C27.5231 133.043 57.9574 163.477 95.5 163.477Z" stroke="black" stroke-width="4" stroke-miterlimit="10"/>
<path d="M80.3011 135.839C80.7834 135.137 85.0761 136.551 85.8115 136.961C86.2174 137.186 86.6423 138.064 86.1839 138.365C85.8115 138.609 84.8708 138.427 84.5843 138.991C83.8537 141.459 82.6743 143.985 81.9151 146.411C81.7957 146.788 81.3039 148.584 81.3087 148.813C81.3182 149.476 82.6552 150.479 81.8005 151.095C81.3707 151.406 76.6244 149.835 76.3522 149.453C75.7076 148.55 77.226 148.268 77.6128 147.91C77.9996 147.552 79.3175 143.885 79.2363 143.536C79.1647 143.231 76.0132 141.994 75.5452 141.913C75.1107 141.841 74.9484 141.798 74.595 142.118C74.0459 142.62 73.0002 145.948 73.2055 146.736C73.2341 146.845 74.7287 147.619 73.7307 148.311C73.153 148.713 68.526 147.204 68.1488 146.803C67.38 145.976 69.013 145.628 69.4141 145.26C69.9537 144.764 72.4272 137.042 72.6468 135.877C72.9047 134.536 71.3623 133.475 72.1884 132.898C72.8139 132.458 78.0617 134.125 78.2431 134.951C78.3864 135.6 76.3474 135.763 75.8556 137.071C75.7649 137.31 75.2349 139.33 75.2635 139.449C75.3399 139.778 76.166 140.094 76.5002 140.223C77.2786 140.528 79.7759 141.397 80.2964 140.753C80.4969 140.504 81.0556 138.317 81.0508 137.945C81.0413 137.195 79.8571 136.493 80.3011 135.839Z" fill="black"/>
<path d="M96.7988 38.7105C97.6249 38.8204 97.9018 39.2167 97.6917 40.0571C97.6105 40.377 96.4311 40.4248 96.2162 41.1553C96.1589 41.3511 95.8868 43.9583 95.9345 44.1015C96.1733 44.8369 100.991 45.0374 101.349 44.5217C101.545 44.2448 101.77 42.3204 101.707 41.8811C101.545 40.7113 100.199 40.4677 100.456 39.2119H104.367C104.759 39.2119 105.819 39.6894 106.473 39.4984C107.208 40.7686 105.948 40.8736 105.126 41.4848C104.639 44.7557 104.3 48.1173 104.238 51.4455C104.396 52.2572 105.862 52.2715 105.485 53.4319C105.145 54.4728 102.562 53.4939 101.827 53.3555C101.244 53.2409 99.6113 53.5751 99.4632 52.6774C99.3725 52.1331 100.394 51.8848 100.667 51.3977C101.111 50.6003 101.755 46.9808 100.59 46.7755C99.9264 46.6609 98.0307 46.5129 97.3145 46.5081C96.942 46.5081 96.2449 46.446 96.03 46.7612C95.7769 47.1384 95.5239 50.8677 95.796 51.3165C95.9011 51.4884 98.4271 53.1788 95.8486 53.2552C95.0416 53.2791 93.0791 53.1788 92.2578 53.0881C89.1349 52.7299 92.0859 51.073 92.1384 50.8868C92.7687 48.5709 92.5968 44.8034 92.6254 42.3539C92.6302 41.8716 92.9406 41.2461 92.8546 40.8975C92.7209 40.3436 91.4842 40.0237 91.3887 39.5653C91.3362 39.3026 91.9283 38.7105 92.0095 38.7105C93.4467 38.7105 95.4666 38.5291 96.8036 38.7105H96.7988Z" fill="black"/>
<path d="M57.3286 64.1854C59.1049 63.5169 60.6329 64.2236 62.3042 64.6295C63.5696 64.9351 65.3745 64.6533 63.3833 66.5824C60.8001 69.0893 59.401 65.9283 56.5933 67.1077C53.8333 68.2632 56.6076 70.2831 58.2454 70.412C59.1527 70.4836 60.7046 69.6337 59.9071 71.6821C59.7687 72.0403 57.6151 75.1631 57.4146 75.2443C56.0824 75.7886 56.6363 74.0362 55.9534 73.2579C55.5141 72.7565 54.3538 72.279 53.8142 71.8636C52.5918 70.9181 49.6122 68.1104 48.4949 67.5947C47.664 67.208 46.5371 68.1534 46.2602 67.3035C45.8161 65.9187 49.0583 61.6212 50.1423 60.6614C53.7617 57.4574 57.8587 59.3579 57.3334 64.1902L57.3286 64.1854ZM51.4506 62.2229C50.7344 62.4425 49.808 63.6792 50.0563 64.5101C50.2282 65.0783 53.0168 67.3703 53.628 67.1889C53.9479 67.0934 54.5353 66.0047 54.6355 65.6561C55.1608 63.8177 53.2603 61.669 51.4506 62.2229Z" fill="black"/>
<path d="M95.3424 137.638C100.805 136.521 105.303 140.126 104.744 145.78C103.847 154.924 89.7366 154.585 90.1042 144.51C90.2093 141.621 92.3962 138.24 95.3424 137.638ZM94.7312 140.432C92.9406 142.332 93.3799 149.218 96.1542 150.077C102.639 152.088 102.433 140.661 98.4557 139.706C97.2715 139.42 95.605 139.506 94.7312 140.432Z" fill="black"/>
<path d="M135.424 55.1938C135.968 55.6952 139.588 59.5391 137.401 59.6632C136.809 59.6966 136.57 59.0472 136.035 59.2526C133.972 61.3154 130.873 63.1442 129.718 65.8468C129.894 67.7282 131.694 69.4185 133.595 68.4397C134.182 68.1341 138.594 64.3761 139.053 63.8079C139.898 62.767 139.077 62.3706 139.325 61.5732C139.955 59.5582 143.661 64.8393 143.599 65.5556C143.47 66.9833 142.515 66.0951 142.133 65.9853C140.452 65.5126 135.901 73.2576 131.503 71.3429C128.777 70.1539 126.385 66.8878 126.948 63.8127C127.297 61.9122 132.014 58.8562 133.103 57.1038C133.881 55.8528 133.084 53.0307 135.419 55.189L135.424 55.1938Z" fill="black"/>
<path d="M116.658 146.602C117.193 147.094 118.74 146.592 118.324 148.006C118.019 149.037 114.06 149.309 113.139 150.155C111.363 149.558 113.053 148.517 113.077 147.562C113.101 146.764 110.245 138.833 109.758 138.246C109.271 137.658 107.853 137.764 108.063 136.742C108.173 136.197 112.313 134.731 113.12 134.488C115.12 133.891 118.234 132.903 119.881 134.679C121.529 136.455 121.213 138.785 119.752 140.614C118.921 141.65 115.841 143.36 115.698 143.642C115.541 143.952 116.391 146.363 116.658 146.602ZM114.514 135.863C112.127 136.35 114.251 140.304 114.977 141.617C118.458 140.81 117.766 135.204 114.514 135.863Z" fill="black"/>
<path d="M78.3291 45.2043C79.1695 46.0877 81.3994 45.849 82.4069 46.04C83.6866 46.2787 86.2604 47.4343 86.9527 48.5564C90.2809 53.9617 78.0617 58.073 77.0542 53.6656C76.7533 52.3477 76.8632 50.7577 78.5965 51.3641C79.031 51.5169 79.4369 52.7059 80.029 52.9542C81.6477 53.637 86.2747 52.0421 84.2978 50.199C83.3428 49.3108 80.5017 49.54 79.0071 49.1867C72.876 47.7255 74.681 41.7329 79.6756 40.5057C82.0727 39.9184 86.0025 39.8659 85.3149 43.3707C84.8183 45.9015 83.0372 42.4874 82.3687 42.2964C80.5304 41.7568 76.6196 43.4089 78.3291 45.2043Z" fill="black"/>
<path d="M64.4672 50.1366C63.7032 51.0439 65.3888 53.0828 66.0621 53.8229C66.616 53.9137 69.3855 50.9245 70.2163 51.9846C71.8398 54.0474 67.7715 54.4437 67.4421 55.7902C67.3609 56.134 68.6167 58.5741 68.9271 58.7746C69.438 59.0993 72.3651 57.3278 72.5895 56.8694C72.9811 56.0767 72.2887 55.1886 72.4606 54.3482C73.8835 53.8802 75.7315 57.2036 74.9818 58.0058L66.7401 63.3634C65.0737 63.2965 66.425 62.0694 66.4154 61.0284C66.4059 59.3954 62.1705 54.6872 61.4924 52.8297C61.182 52.3331 59.7209 52.7104 59.5967 52.5814C59.6015 52.2281 59.5394 51.8413 59.6445 51.4975C59.7448 51.1824 64.2906 47.816 64.9065 47.4292C65.5703 47.0138 67.5805 45.8869 68.2395 46.0636C68.9319 46.2498 70.2641 48.5227 69.7102 49.196C68.6406 50.49 67.7286 48.2744 67.0792 48.3317C66.9216 48.346 64.62 49.9504 64.4672 50.1366Z" fill="black"/>
<path d="M59.5299 125.033C63.2019 124.355 68.5117 126.714 68.5976 130.945C68.6263 132.434 66.7688 134.158 65.6467 132.926C64.6296 131.804 67.3609 129.589 64.5198 127.75C60.9385 125.434 56.9848 130.863 56.6219 133.996C56.3545 136.288 58.4889 138.007 60.6807 137.529C61.4829 137.353 62.0463 136.417 62.9822 137.1C63.9181 137.782 63.0443 139.182 62.3615 139.716C59.9978 141.555 55.5093 138.389 54.2965 136.207C52.1 132.263 55.2228 125.831 59.5347 125.033H59.5299Z" fill="black"/>
<path d="M121.81 46.3791C123.811 46.3982 127.005 48.0885 128.156 49.7263C128.4 50.0749 129.173 51.5981 129.178 51.9467C129.207 53.1023 127.913 54.3963 126.757 53.9092C125.229 53.2646 126.337 52.5006 126.437 51.6745C126.59 50.4044 124.456 48.6711 123.257 48.5469C119.671 48.184 115.011 56.0055 118.783 58.3357C121.237 59.8541 121.925 58.0778 123.572 57.9346C125.659 57.7531 124.007 60.7996 122.608 61.2389C119.915 62.0793 116.052 59.6345 114.858 57.2183C112.528 52.5006 116.596 46.3265 121.805 46.3743L121.81 46.3791Z" fill="black"/>
<path d="M144.525 69.2804C145.485 69.1467 146.316 69.9441 146.822 70.6604C147.328 71.3766 150.613 78.0855 150.79 78.8113C151.434 81.4089 146.306 82.1252 146.879 80.2343C147.041 79.6947 148.331 79.8045 148.082 78.5009C147.929 77.6892 147.342 77.3597 146.545 77.608L139.306 81.4758C138.623 81.8196 138.91 84.4602 137.534 83.7582C136.952 83.4622 135.667 78.8734 134.875 78.0712C134.464 77.078 134.932 76.1326 136.021 76.6721C136.746 77.0303 136.89 78.9498 138.098 78.5248C139.85 77.4266 144.363 75.8365 145.604 74.404C146.225 73.6878 145.389 71.6345 144.429 71.5581C143.914 71.5151 142.39 72.8569 142.376 70.8228C142.376 70.2354 144.047 69.3473 144.525 69.2804Z" fill="black"/>
<path d="M129.603 137.963C130.238 138.622 130.859 139.023 131.465 139.167C132.072 139.31 132.735 139.152 133.461 138.703C133.838 138.469 134.139 138.193 134.359 137.877C134.579 137.562 134.693 137.204 134.698 136.808C134.698 136.411 134.574 135.996 134.306 135.571C134.058 135.175 133.772 134.879 133.442 134.678C133.113 134.478 132.707 134.349 132.215 134.291C131.723 134.234 131.098 134.239 130.334 134.306C129.679 134.368 129.068 134.392 128.495 134.373C127.922 134.353 127.397 134.272 126.91 134.129C126.423 133.986 125.984 133.766 125.587 133.48C125.191 133.193 124.842 132.811 124.546 132.334C124.054 131.546 123.835 130.758 123.883 129.965C123.93 129.173 124.236 128.404 124.795 127.659C125.358 126.914 126.122 126.241 127.091 125.634C127.66 125.281 128.223 124.971 128.777 124.708C129.331 124.445 129.99 124.183 130.749 123.925L132.482 126.704L131.169 127.525C130.735 127.095 130.329 126.79 129.956 126.613C129.584 126.436 129.211 126.36 128.844 126.398C128.476 126.436 128.075 126.584 127.65 126.852C127.287 127.081 127.001 127.344 126.791 127.654C126.58 127.964 126.475 128.294 126.466 128.647C126.456 129.005 126.566 129.359 126.786 129.717C127.005 130.075 127.287 130.362 127.602 130.548C127.917 130.729 128.323 130.844 128.82 130.892C129.321 130.939 129.995 130.93 130.849 130.858C131.89 130.777 132.759 130.791 133.456 130.906C134.154 131.02 134.75 131.24 135.257 131.57C135.758 131.899 136.202 132.372 136.584 132.983C137.076 133.771 137.319 134.564 137.315 135.37C137.315 136.177 137.057 136.951 136.555 137.696C136.054 138.441 135.343 139.095 134.431 139.668C133.776 140.074 133.074 140.461 132.325 140.828C131.57 141.196 130.845 141.502 130.133 141.75L128.29 138.799L129.603 137.978V137.963Z" fill="black"/>
<path d="M51.909 81.4322C52.2433 81.5277 52.4963 81.585 52.6778 81.6136C52.8545 81.6423 53.0073 81.6375 53.1314 81.6136C53.2556 81.5898 53.3606 81.5372 53.4513 81.4752C53.5421 81.4083 53.6328 81.3128 53.7283 81.1791C53.8238 81.0454 53.9241 80.8544 54.0243 80.6109L54.6451 80.7876L52.9977 86.6369L52.377 86.4603C52.3961 86.1785 52.3913 85.9446 52.3579 85.7679C52.3244 85.5912 52.2576 85.4432 52.1478 85.3334C52.0427 85.2188 51.8899 85.1233 51.6941 85.0469C51.4984 84.9705 51.2501 84.8893 50.9492 84.8033L42.8508 82.5257C42.5548 82.4445 42.3065 82.3824 42.1012 82.3442C41.8958 82.306 41.7192 82.306 41.5711 82.3442C41.4231 82.3872 41.2894 82.4731 41.17 82.6068C41.0459 82.7405 40.917 82.9363 40.7737 83.1942L40.153 83.0175L43.1135 72.5029L46.1026 73.3433L45.6824 74.8331C45.0187 74.9048 44.5603 74.9955 44.3024 75.1005C44.0446 75.2104 43.8249 75.3584 43.6339 75.5589C43.4477 75.7547 43.2758 76.1319 43.1182 76.6906L42.5261 78.7916L47.3155 80.1382L47.707 78.7439C47.8025 78.4048 47.8312 78.1279 47.793 77.9178C47.7548 77.7077 47.6449 77.5119 47.4635 77.3305C47.282 77.1538 47.0099 76.9676 46.647 76.7766L46.9908 75.5494L51.0925 76.7049L50.7487 77.9321C50.3285 77.9082 49.9942 77.9273 49.7412 77.9894C49.4929 78.0515 49.2971 78.1613 49.1586 78.3189C49.0201 78.4765 48.9055 78.72 48.81 79.0542L48.4185 80.4485L51.909 81.4322Z" fill="black"/>
<path d="M44.1449 95.8486C43.4239 103.627 45.692 111.458 50.7774 119.342" stroke="black" stroke-width="3" stroke-miterlimit="10"/>
<path d="M144.921 91.5557C146.86 99.1193 145.862 107.213 142.09 115.798" stroke="black" stroke-width="3" stroke-miterlimit="10"/>
</svg>
